PathFileType	4	(X/Y/Z)	C:/Users/opensim2020/Desktop/walking_exp_matlab/subject01_walking04_straight_01.trc	
DataRate	CameraRate	NumFrames	NumMarkers	Units	OrigDataRate	OrigDataStartFrame	OrigNumFrames	
100.00	100.00	4	43	mm	100.00	947	216	
Frame#	Time	LFHD			RFHD			LBHD			RBHD			C7			T10			CLAV			STRN			RBAK			LSHO			LUPA			LELB			LFRM			LWRA			LWRB			LFIN			RSHO			RUPA			RELB			RFRM			RWRA			RWRB			RFIN			LASI			RASI			LPSI			RPSI			LTHI			LKNE			LTIB			LANK			LHEE			LTOE			RTHI			RKNE			RTIB			RANK			RHEE			RTOE			*39			*40			*41			*42			
		X1	Y1	Z1	X2	Y2	Z2	X3	Y3	Z3	X4	Y4	Z4	X5	Y5	Z5	X6	Y6	Z6	X7	Y7	Z7	X8	Y8	Z8	X9	Y9	Z9	X10	Y10	Z10	X11	Y11	Z11	X12	Y12	Z12	X13	Y13	Z13	X14	Y14	Z14	X15	Y15	Z15	X16	Y16	Z16	X17	Y17	Z17	X18	Y18	Z18	X19	Y19	Z19	X20	Y20	Z20	X21	Y21	Z21	X22	Y22	Z22	X23	Y23	Z23	X24	Y24	Z24	X25	Y25	Z25	X26	Y26	Z26	X27	Y27	Z27	X28	Y28	Z28	X29	Y29	Z29	X30	Y30	Z30	X31	Y31	Z31	X32	Y32	Z32	X33	Y33	Z33	X34	Y34	Z34	X35	Y35	Z35	X36	Y36	Z36	X37	Y37	Z37	X38	Y38	Z38	X39	Y39	Z39	X40	Y40	Z40	X41	Y41	Z41	X42	Y42	Z42	X43	Y43	Z43	

136	1.350	-1104.10791	299.05917	1674.84692	-989.32471	308.62833	1681.04028	-1100.60571	183.06801	1627.36279	-979.30060	189.81335	1632.82947	-1058.78894	143.69998	1438.87720	-1044.97119	102.02669	1146.46326	-1050.73584	284.72540	1366.91809	-1052.27600	324.64093	1211.38416	-980.21405	82.78307	1246.16382	-1214.50342	230.62370	1393.04297	-1303.23572	215.10727	1209.68506	-1314.89490	226.39777	1057.78149	-1341.42603	309.89145	976.90106	-1326.09729	434.17297	914.46954	-1348.85254	388.14984	883.34576	-1360.77783	463.06296	846.06525	-901.11652	217.84328	1399.46033	-803.99432	138.66299	1206.02563	-800.29779	128.31679	1082.61670	-763.31891	142.53899	964.53394	-770.02277	214.14491	841.25684	-737.39276	166.60992	846.70050	-732.22729	198.17647	767.20978	-1146.59558	271.78952	932.29779	-929.81519	272.24612	942.18445	-1091.57129	85.87260	949.27826	-945.95508	88.96402	951.35199	-1185.88330	206.63354	600.33423	-1165.91089	177.34413	467.75980	-1166.30396	105.09711	292.08777	-1109.30701	48.10344	83.04005	-1058.23071	-2.85127	61.36925	-1109.24011	190.68608	35.22301	-858.43719	317.61829	626.54657	-882.53815	370.61145	476.58936	-879.65851	311.10382	310.38367	-929.60791	282.89291	105.30860	-987.65265	239.97923	68.25368	-915.13550	415.33682	54.61303	-1013.90253	295.74768	1714.49487	-3101.91895	1973.03259	1023.35187	-3140.61963	2012.49280	1021.93628			 
137	1.360	-1103.26221	308.75632	1674.45715	-988.42963	318.16663	1680.33887	-1099.89209	192.64684	1627.08240	-978.66522	199.20041	1632.35803	-1058.19397	152.96446	1438.48889	-1044.17078	111.06140	1146.21997	-1050.35596	293.95746	1366.46497	-1052.11230	333.77954	1210.90771	-979.76599	91.97849	1245.81226	-1213.99719	239.80280	1392.81274	-1302.92151	224.87321	1209.60413	-1315.34692	237.32458	1057.93311	-1341.77087	322.36218	978.52502	-1326.75769	447.64807	918.61780	-1349.18909	402.27985	886.35529	-1361.17896	477.78253	850.54077	-900.70526	227.21730	1398.95361	-803.72229	147.44603	1205.74231	-800.09583	136.58249	1082.38318	-763.16595	150.06288	964.26465	-770.04016	220.78561	840.49463	-737.21710	173.37866	846.35101	-732.10687	204.51489	766.60669	-1146.51379	280.16553	931.91980	-929.52991	281.72073	941.73383	-1090.48486	94.60128	948.97925	-944.97754	98.68700	950.49591	-1185.54797	211.94771	600.56848	-1165.75867	181.09836	468.11780	-1166.22485	107.23813	293.13800	-1109.26953	48.56380	84.38316	-1058.21423	-2.42547	63.25451	-1109.24414	190.71048	35.08968	-858.82629	324.62482	625.00903	-883.74915	379.75864	476.21347	-879.62274	327.80209	307.82690	-927.73895	312.35657	100.55165	-985.55273	270.22552	61.53480	-914.29883	447.78134	57.55203	-1012.57874	305.53827	1714.07813	-3101.86206	1973.04224	1023.38232	-3140.63599	2012.50818	1022.03839			 
138	1.370	-1102.28870	318.41214	1673.93933	-987.32056	327.71069	1679.61914	-1099.13403	202.24419	1626.70691	-977.92731	208.66437	1631.75916	-1057.46375	162.03694	1438.13232	-1043.22888	120.11009	1145.83765	-1049.92126	303.24457	1365.94507	-1051.83289	342.94925	1210.38147	-979.07745	101.32510	1245.38879	-1213.40808	248.89264	1392.52441	-1302.66187	234.74626	1209.54150	-1315.51697	248.18330	1057.95544	-1342.13403	334.36087	979.87054	-1327.26086	460.90112	922.47034	-1349.49817	416.12683	889.26367	-1361.70447	492.28812	855.06848	-900.02374	236.77989	1398.52173	-803.33734	156.28094	1205.43555	-799.75812	144.92052	1082.14575	-763.00153	157.72070	963.89807	-769.82050	227.88065	839.77509	-737.13678	180.01118	845.71411	-731.92920	211.01295	765.99091	-1146.39575	288.67975	931.63678	-929.23566	291.58551	941.34802	-1089.26978	103.43383	948.68542	-943.82581	107.89402	950.20770	-1185.26440	217.39528	600.77753	-1165.63721	185.14113	468.61636	-1166.18347	109.53773	294.20718	-1109.13831	49.15668	85.83158	-1058.26074	-1.93615	65.37719	-1109.31995	190.78000	35.15315	-859.19360	331.45364	623.25018	-885.06946	388.58432	475.53314	-879.51746	344.71289	305.30630	-926.01770	341.12045	96.91993	-983.42828	300.73712	55.22318	-913.98395	479.12048	61.23089	-1011.46326	315.36880	1713.51379	-3101.80884	1973.27661	1023.36517	-3140.72266	2012.51807	1022.04205			 
139	1.380	-1101.11487	328.07086	1673.31897	-986.58649	337.13129	1678.78210	-1098.25623	211.81290	1626.29395	-977.00903	218.17635	1631.15491	-1056.67261	171.28123	1437.61157	-1042.17236	129.26009	1145.33252	-1049.30042	312.43060	1365.38745	-1051.54407	352.20706	1209.83618	-978.26367	110.68618	1244.79382	-1212.81763	257.91302	1392.21533	-1302.19641	244.68663	1209.42639	-1315.61780	259.00192	1057.94702	-1342.22510	346.52356	981.29114	-1327.64209	473.87424	926.08301	-1349.83997	429.71826	892.06732	-1362.23779	506.47726	859.30798	-899.43109	246.18188	1397.76880	-802.86316	165.14151	1205.01172	-799.41986	153.38145	1081.75989	-762.73383	165.54207	963.54205	-769.44318	235.03273	838.97107	-736.97882	187.38637	845.24030	-731.77490	217.55505	765.18341	-1146.33398	297.25372	931.44299	-929.04047	301.28482	940.75995	-1087.93494	112.37619	948.35150	-942.59821	117.51653	949.72583	-1185.02917	222.97075	600.90924	-1165.52563	189.41287	468.94876	-1166.10620	112.00491	295.34323	-1109.13611	49.81204	87.39241	-1058.10217	-1.22847	67.44874	-1109.44885	190.86241	35.29132	-859.46222	338.15088	621.31433	-886.40460	397.38437	474.61234	-879.39868	361.57901	303.16205	-924.93756	368.67627	94.05752	-980.92120	330.78217	49.69407	-913.99640	509.02014	65.52454	-1010.51111	324.75748	1712.65137	-3101.99951	1972.92346	1023.92249	-3140.60620	2012.52295	1021.84485			 
